<svg xmlns="http://www.w3.org/2000/svg" viewBox="0 0 32 32" width="32" height="32" role="img" aria-label="Markwise">
  <!-- Markwise brand mark - SINGLE SOURCE OF TRUTH. The site favicon + top-bar/footer marks all reference this file.
       Glyphs are outlined (font-independent). Edit colors/gradient/spacing here directly; re-run build-mark.py only to change letters/fonts. -->
  <defs>
    <linearGradient id="mwg" x1="0" y1="0.08" x2="1" y2="0.92">
      <stop offset="0" stop-color="#15171c"/>
      <stop offset="0.4" stop-color="#23262c"/>
      <stop offset="0.6" stop-color="#8f8c82"/>
      <stop offset="0.8" stop-color="#e7e1d4"/>
      <stop offset="1" stop-color="#f4efe4"/>
    </linearGradient>
  </defs>
  <rect width="32" height="32" rx="7" fill="url(#mwg)"/>
  <path fill="#e8b04b" transform="translate(4.700 21.6) scale(0.00750 -0.00750)" d="M214.73349893541518 131.25621007806956V417.39247693399574L592.8431511710432 641.929737402413L794.1096522356281 751.2665010645848V756.4524485450675L592.8431511710432 866.5681334279631L214.73349893541518 1090.3264726756565V1376.4627395315827L1041.5475514549325 889.6486870120652V624Z"/>
  <path fill="#16181c" transform="translate(16.901 21.6) scale(0.01550 -0.01550)" d="M250.49993896484375 -14Q180.999267578125 -14 133.24905395507812 16.50006103515625Q85.49884033203125 47.0001220703125 60.99884033203125 104.00018310546875Q36.49884033203125 161.000244140625 36.49884033203125 240.50030517578125Q36.49884033203125 328.0003662109375 66.49884033203125 392.00042724609375Q96.49884033203125 456.00048828125 152.74905395507812 491.00054931640625Q208.999267578125 526.0006103515625 287.49969482421875 526.0006103515625Q323 526.0006103515625 352.49951171875 518.000732421875Q381.9990234375 510.0008544921875 403.9989013671875 497.0010986328125V622.9974365234375Q403.9989013671875 653.4968872070312 396.99896240234375 664.2469177246094Q389.9990234375 674.9969482421875 362.9991455078125 678.9969482421875L323.49969482421875 685.4968872070312L330.9998779296875 760.4999389648438L548.5065307617188 766.5000610351562L563.0069580078125 751.4995727539062V122.0029296875Q563.0069580078125 99.0030517578125 568.7568664550781 91.00311279296875Q574.5067749023438 83.003173828125 595.5068969726562 78.50311279296875L634.005615234375 71.0032958984375V-1.49981689453125L429.49945068359375 -7.9998779296875L417.49969482421875 71.50018310546875H413.49957275390625Q397.50030517578125 47.0006103515625 375.00067138671875 27.750518798828125Q352.50103759765625 8.50042724609375 322.00091552734375 -2.749786376953125Q291.50079345703125 -14 250.49993896484375 -14ZM304.50299072265625 84.50323486328125Q336.001953125 84.50323486328125 358.00103759765625 99.502685546875Q380.0001220703125 114.50213623046875 391.99951171875 142.75131225585938Q403.9989013671875 171.00048828125 403.9989013671875 208.9996337890625V398.998291015625Q383.49945068359375 413.49761962890625 360.00054931640625 421.2472839355469Q336.50164794921875 428.9969482421875 310.002685546875 428.9969482421875Q273.50408935546875 428.9969482421875 250.00506591796875 409.7474060058594Q226.50604248046875 390.49786376953125 215.006591796875 350.9986572265625Q203.50714111328125 311.49945068359375 203.50714111328125 252.00048828125Q203.50714111328125 196.0010986328125 215.00665283203125 158.75173950195312Q226.50616455078125 121.50238037109375 249.25521850585938 103.0028076171875Q272.0042724609375 84.50323486328125 304.50299072265625 84.50323486328125Z"/>
  <rect x="0.6" y="0.6" width="30.8" height="30.8" rx="6.5" fill="none" stroke="#000000" stroke-opacity="0.16" stroke-width="1.1"/>
</svg>
